<svg xmlns="http://www.w3.org/2000/svg" viewBox="0 0 698.3 98.0" role="img" aria-label="pikaworks"><g transform="translate(-6.56,-9.24) scale(1.8200)"><path fill="#FFD60A" d="M37 7 L17 35 H29 L26 57 L48 28 H35 L40 7 Z"/><g fill="none" stroke="#FFD60A" stroke-width="2.6" stroke-linecap="round" stroke-linejoin="round"><path d="M8 20 l4 4 l-3 1 l4 5"/><path d="M56 34 l-4 5 l3 1 l-4 5"/></g></g><g fill="#1c1c1e" transform="translate(113.56,84.00) scale(0.04804,-0.04804)"><path transform="translate(0.0,0)" d="M479 487V0H141V1457H655Q809 1457 919.5 1420.5Q1030 1384 1101.5 1320.0Q1173 1256 1207.0 1169.0Q1241 1082 1241 981Q1241 872 1206.0 781.0Q1171 690 1099.0 625.0Q1027 560 916.5 523.5Q806 487 655 487ZM479 742H655Q787 742 845.0 805.0Q903 868 903 981Q903 1031 888.0 1072.0Q873 1113 842.5 1142.5Q812 1172 765.5 1188.0Q719 1204 655 1204H479Z"/><path transform="translate(1232.0,0)" d="M481 0H141V1457H481Z"/><path transform="translate(1814.0,0)" d="M479 867H533Q608 867 641 914L969 1390Q998 1428 1031.5 1442.5Q1065 1457 1115 1457H1409L977 868Q931 807 878 780Q916 766 947.0 741.0Q978 716 1005 676L1445 0H1143Q1114 0 1093.5 4.0Q1073 8 1058.0 16.0Q1043 24 1032.0 35.5Q1021 47 1011 62L681 569Q663 597 635.5 608.5Q608 620 561 620H479V0H141V1457H479Z"/><path transform="translate(3187.0,0)" d="M1448 0H1186Q1142 0 1115.0 20.5Q1088 41 1074 73L988 327H434L348 73Q337 45 308.5 22.5Q280 0 238 0H-26L538 1457H884ZM512 557H910L776 956Q761 994 744.0 1045.5Q727 1097 710 1157Q694 1096 677.5 1044.0Q661 992 646 954Z"/><path transform="translate(4569.0,0)" d="M4 1457H288Q332 1457 361.5 1437.0Q391 1417 400 1384L600 624Q609 587 618.0 545.0Q627 503 636 457Q654 551 680 624L916 1384Q925 1412 954.5 1434.5Q984 1457 1026 1457H1126Q1170 1457 1197.0 1436.5Q1224 1416 1238 1384L1472 624Q1498 554 1516 465Q1524 509 1532.5 549.0Q1541 589 1550 624L1750 1384Q1758 1413 1788.0 1435.0Q1818 1457 1860 1457H2126L1676 0H1370L1096 903Q1081 946 1067 1002Q1053 946 1038 903L760 0H454Z"/><path transform="translate(6659.0,0)" d="M1571 729Q1571 571 1516.5 435.0Q1462 299 1363.0 198.5Q1264 98 1124.5 41.0Q985 -16 815 -16Q645 -16 505.0 41.0Q365 98 265.5 198.5Q166 299 111.5 435.0Q57 571 57 729Q57 887 111.5 1023.0Q166 1159 265.5 1259.0Q365 1359 505.0 1416.0Q645 1473 815 1473Q985 1473 1124.5 1415.5Q1264 1358 1363.0 1258.0Q1462 1158 1516.5 1022.0Q1571 886 1571 729ZM1225 729Q1225 837 1197.0 923.5Q1169 1010 1116.5 1070.0Q1064 1130 988.0 1162.0Q912 1194 815 1194Q717 1194 640.5 1162.0Q564 1130 511.5 1070.0Q459 1010 431.0 923.5Q403 837 403 729Q403 620 431.0 533.5Q459 447 511.5 387.0Q564 327 640.5 295.5Q717 264 815 264Q912 264 988.0 295.5Q1064 327 1116.5 387.0Q1169 447 1197.0 533.5Q1225 620 1225 729Z"/><path transform="translate(8248.0,0)" d="M479 539V0H141V1457H615Q773 1457 884.5 1424.5Q996 1392 1066.5 1334.0Q1137 1276 1169.0 1197.0Q1201 1118 1201 1025Q1201 954 1182.0 891.0Q1163 828 1125.5 774.5Q1088 721 1033.5 679.0Q979 637 908 610Q942 593 971.0 567.5Q1000 542 1023 507L1333 0H1027Q942 0 905 64L663 487Q646 514 625.0 526.5Q604 539 565 539ZM479 772H615Q684 772 732.5 789.5Q781 807 812.0 838.0Q843 869 857.0 910.5Q871 952 871 1000Q871 1096 808.5 1150.0Q746 1204 615 1204H479Z"/><path transform="translate(9523.0,0)" d="M479 867H533Q608 867 641 914L969 1390Q998 1428 1031.5 1442.5Q1065 1457 1115 1457H1409L977 868Q931 807 878 780Q916 766 947.0 741.0Q978 716 1005 676L1445 0H1143Q1114 0 1093.5 4.0Q1073 8 1058.0 16.0Q1043 24 1032.0 35.5Q1021 47 1011 62L681 569Q663 597 635.5 608.5Q608 620 561 620H479V0H141V1457H479Z"/><path transform="translate(10896.0,0)" d="M946 1161Q931 1137 914.5 1125.0Q898 1113 872 1113Q849 1113 822.5 1127.5Q796 1142 762.5 1160.0Q729 1178 686.0 1192.5Q643 1207 588 1207Q493 1207 446.5 1166.5Q400 1126 400 1057Q400 1013 428.0 984.0Q456 955 501.5 934.0Q547 913 605.5 895.5Q664 878 725.0 856.5Q786 835 844.5 806.0Q903 777 948.5 732.0Q994 687 1022.0 622.5Q1050 558 1050 467Q1050 366 1015.0 278.0Q980 190 913.5 124.5Q847 59 749.5 21.5Q652 -16 528 -16Q460 -16 389.5 -2.0Q319 12 253.0 37.5Q187 63 129.0 98.0Q71 133 28 176L128 334Q140 351 159.5 362.5Q179 374 202 374Q232 374 262.5 355.0Q293 336 331.5 313.0Q370 290 420.0 271.0Q470 252 538 252Q630 252 681.0 292.5Q732 333 732 421Q732 472 704.0 504.0Q676 536 630.5 557.0Q585 578 527.0 594.0Q469 610 408.0 629.5Q347 649 289.0 677.5Q231 706 185.5 752.5Q140 799 112.0 868.5Q84 938 84 1040Q84 1122 117.0 1200.0Q150 1278 214.0 1339.0Q278 1400 371.0 1436.5Q464 1473 584 1473Q651 1473 714.5 1462.5Q778 1452 835.0 1431.5Q892 1411 941.5 1382.5Q991 1354 1030 1318Z"/></g></svg>